<mxfile host="app.diagrams.net" modified="2023-06-21T23:12:03.107Z" agent="Mozilla/5.0 (Windows NT 10.0; Win64; x64) AppleWebKit/537.36 (KHTML, like Gecko) Chrome/114.0.0.0 Safari/537.36" etag="lW1WybzvSU0CtwmDM-ov" version="21.3.7" type="github">
  <diagram name="Page-1" id="anyHuZpH-Jrk-g-fhOrN">
    <mxGraphModel dx="782" dy="444" grid="1" gridSize="10" guides="1" tooltips="1" connect="1" arrows="1" fold="1" page="1" pageScale="1" pageWidth="850" pageHeight="1100" math="0" shadow="0">
      <root>
        <mxCell id="0" />
        <mxCell id="1" parent="0" />
        <mxCell id="CB1rWN8OY4WiAcrrbTE5-1" value="Seat Booking App" style="swimlane;whiteSpace=wrap;html=1;startSize=30;movable=1;resizable=1;rotatable=1;deletable=1;editable=1;locked=0;connectable=1;gradientColor=#E6E6E6;fillColor=default;swimlaneFillColor=#EDEDED;gradientDirection=south;" vertex="1" parent="1">
          <mxGeometry x="300" y="130" width="240" height="230" as="geometry" />
        </mxCell>
        <mxCell id="CB1rWN8OY4WiAcrrbTE5-2" value="X" style="whiteSpace=wrap;html=1;aspect=fixed;movable=1;resizable=1;rotatable=1;deletable=1;editable=1;locked=0;connectable=1;fillColor=#f8cecc;strokeColor=#b85450;" vertex="1" parent="CB1rWN8OY4WiAcrrbTE5-1">
          <mxGeometry x="210" width="30" height="30" as="geometry" />
        </mxCell>
        <mxCell id="CB1rWN8OY4WiAcrrbTE5-3" value="Open File" style="rounded=1;whiteSpace=wrap;html=1;fillColor=#d5e8d4;strokeColor=#82b366;" vertex="1" parent="CB1rWN8OY4WiAcrrbTE5-1">
          <mxGeometry x="80" y="60" width="90" height="40" as="geometry" />
        </mxCell>
        <mxCell id="CB1rWN8OY4WiAcrrbTE5-7" value="Create File" style="rounded=1;whiteSpace=wrap;html=1;fillColor=#d5e8d4;strokeColor=#82b366;" vertex="1" parent="CB1rWN8OY4WiAcrrbTE5-1">
          <mxGeometry x="80" y="110" width="90" height="40" as="geometry" />
        </mxCell>
        <mxCell id="CB1rWN8OY4WiAcrrbTE5-8" value="Exit" style="rounded=1;whiteSpace=wrap;html=1;fillColor=#f8cecc;strokeColor=#b85450;" vertex="1" parent="CB1rWN8OY4WiAcrrbTE5-1">
          <mxGeometry x="80" y="160" width="90" height="40" as="geometry" />
        </mxCell>
        <mxCell id="CB1rWN8OY4WiAcrrbTE5-9" value="Below is the initial design for the GUI of the application." style="text;html=1;strokeColor=none;fillColor=none;align=center;verticalAlign=middle;whiteSpace=wrap;rounded=0;" vertex="1" parent="1">
          <mxGeometry x="300" y="90" width="240" height="30" as="geometry" />
        </mxCell>
        <mxCell id="CB1rWN8OY4WiAcrrbTE5-10" value="Seat Booking App" style="swimlane;whiteSpace=wrap;html=1;startSize=30;movable=1;resizable=1;rotatable=1;deletable=1;editable=1;locked=0;connectable=1;gradientColor=#E6E6E6;fillColor=default;swimlaneFillColor=#EDEDED;gradientDirection=south;" vertex="1" parent="1">
          <mxGeometry x="300" y="420" width="240" height="320" as="geometry" />
        </mxCell>
        <mxCell id="CB1rWN8OY4WiAcrrbTE5-11" value="X" style="whiteSpace=wrap;html=1;aspect=fixed;movable=1;resizable=1;rotatable=1;deletable=1;editable=1;locked=0;connectable=1;fillColor=#f8cecc;strokeColor=#b85450;" vertex="1" parent="CB1rWN8OY4WiAcrrbTE5-10">
          <mxGeometry x="210" width="30" height="30" as="geometry" />
        </mxCell>
        <mxCell id="CB1rWN8OY4WiAcrrbTE5-15" value="&lt;b&gt;Creating a File&lt;/b&gt;" style="text;html=1;strokeColor=none;fillColor=none;align=center;verticalAlign=middle;whiteSpace=wrap;rounded=0;" vertex="1" parent="CB1rWN8OY4WiAcrrbTE5-10">
          <mxGeometry x="80" y="40" width="90" height="30" as="geometry" />
        </mxCell>
        <mxCell id="CB1rWN8OY4WiAcrrbTE5-16" value="&lt;font style=&quot;font-size: 10px;&quot;&gt;Course Name&lt;/font&gt;" style="text;html=1;strokeColor=none;fillColor=none;align=center;verticalAlign=middle;whiteSpace=wrap;rounded=0;" vertex="1" parent="CB1rWN8OY4WiAcrrbTE5-10">
          <mxGeometry y="70" width="90" height="30" as="geometry" />
        </mxCell>
        <mxCell id="CB1rWN8OY4WiAcrrbTE5-17" value="&lt;font style=&quot;font-size: 10px;&quot;&gt;Course Name&lt;/font&gt;" style="text;html=1;strokeColor=none;fillColor=none;align=center;verticalAlign=middle;whiteSpace=wrap;rounded=0;" vertex="1" parent="CB1rWN8OY4WiAcrrbTE5-10">
          <mxGeometry y="100" width="90" height="30" as="geometry" />
        </mxCell>
        <mxCell id="CB1rWN8OY4WiAcrrbTE5-18" value="&lt;font style=&quot;font-size: 10px;&quot;&gt;Course Name&lt;/font&gt;" style="text;html=1;strokeColor=none;fillColor=none;align=center;verticalAlign=middle;whiteSpace=wrap;rounded=0;" vertex="1" parent="CB1rWN8OY4WiAcrrbTE5-10">
          <mxGeometry y="130" width="90" height="30" as="geometry" />
        </mxCell>
        <mxCell id="CB1rWN8OY4WiAcrrbTE5-19" value="&lt;font style=&quot;font-size: 10px;&quot;&gt;Booked Seats&lt;/font&gt;" style="text;html=1;strokeColor=none;fillColor=none;align=center;verticalAlign=middle;whiteSpace=wrap;rounded=0;" vertex="1" parent="CB1rWN8OY4WiAcrrbTE5-10">
          <mxGeometry x="75" y="160" width="90" height="30" as="geometry" />
        </mxCell>
        <mxCell id="CB1rWN8OY4WiAcrrbTE5-20" value="" style="rounded=0;whiteSpace=wrap;html=1;" vertex="1" parent="CB1rWN8OY4WiAcrrbTE5-10">
          <mxGeometry x="90" y="77.5" width="90" height="15" as="geometry" />
        </mxCell>
        <mxCell id="CB1rWN8OY4WiAcrrbTE5-29" value="" style="rounded=0;whiteSpace=wrap;html=1;" vertex="1" parent="CB1rWN8OY4WiAcrrbTE5-10">
          <mxGeometry x="90" y="107.5" width="90" height="15" as="geometry" />
        </mxCell>
        <mxCell id="CB1rWN8OY4WiAcrrbTE5-30" value="" style="rounded=0;whiteSpace=wrap;html=1;" vertex="1" parent="CB1rWN8OY4WiAcrrbTE5-10">
          <mxGeometry x="90" y="137.5" width="90" height="15" as="geometry" />
        </mxCell>
        <mxCell id="CB1rWN8OY4WiAcrrbTE5-32" value="" style="rounded=1;whiteSpace=wrap;html=1;" vertex="1" parent="CB1rWN8OY4WiAcrrbTE5-10">
          <mxGeometry x="25" y="190" width="190" height="110" as="geometry" />
        </mxCell>
        <mxCell id="CB1rWN8OY4WiAcrrbTE5-36" value="" style="verticalLabelPosition=bottom;html=1;verticalAlign=top;align=center;shape=mxgraph.floorplan.office_chair;movable=1;resizable=1;rotatable=1;deletable=1;editable=1;locked=0;connectable=1;fillColor=#d5e8d4;strokeColor=#82b366;" vertex="1" parent="CB1rWN8OY4WiAcrrbTE5-10">
          <mxGeometry x="35" y="200" width="20" height="20" as="geometry" />
        </mxCell>
        <mxCell id="CB1rWN8OY4WiAcrrbTE5-35" value="" style="verticalLabelPosition=bottom;html=1;verticalAlign=top;align=center;shape=mxgraph.floorplan.office_chair;movable=1;resizable=1;rotatable=1;deletable=1;editable=1;locked=0;connectable=1;fillColor=#d5e8d4;strokeColor=#82b366;" vertex="1" parent="CB1rWN8OY4WiAcrrbTE5-10">
          <mxGeometry x="55" y="200" width="20" height="20" as="geometry" />
        </mxCell>
        <mxCell id="CB1rWN8OY4WiAcrrbTE5-34" value="" style="verticalLabelPosition=bottom;html=1;verticalAlign=top;align=center;shape=mxgraph.floorplan.office_chair;movable=1;resizable=1;rotatable=1;deletable=1;editable=1;locked=0;connectable=1;fillColor=#d5e8d4;strokeColor=#82b366;" vertex="1" parent="CB1rWN8OY4WiAcrrbTE5-10">
          <mxGeometry x="75" y="200" width="20" height="20" as="geometry" />
        </mxCell>
        <mxCell id="CB1rWN8OY4WiAcrrbTE5-33" value="" style="verticalLabelPosition=bottom;html=1;verticalAlign=top;align=center;shape=mxgraph.floorplan.office_chair;movable=1;resizable=1;rotatable=1;deletable=1;editable=1;locked=0;connectable=1;" vertex="1" parent="CB1rWN8OY4WiAcrrbTE5-10">
          <mxGeometry x="95" y="200" width="20" height="20" as="geometry" />
        </mxCell>
        <mxCell id="CB1rWN8OY4WiAcrrbTE5-31" value="" style="verticalLabelPosition=bottom;html=1;verticalAlign=top;align=center;shape=mxgraph.floorplan.office_chair;movable=1;resizable=1;rotatable=1;deletable=1;editable=1;locked=0;connectable=1;" vertex="1" parent="CB1rWN8OY4WiAcrrbTE5-10">
          <mxGeometry x="130" y="200" width="20" height="20" as="geometry" />
        </mxCell>
        <mxCell id="CB1rWN8OY4WiAcrrbTE5-37" value="" style="verticalLabelPosition=bottom;html=1;verticalAlign=top;align=center;shape=mxgraph.floorplan.office_chair;" vertex="1" parent="CB1rWN8OY4WiAcrrbTE5-10">
          <mxGeometry x="150" y="200" width="20" height="20" as="geometry" />
        </mxCell>
        <mxCell id="CB1rWN8OY4WiAcrrbTE5-38" value="" style="verticalLabelPosition=bottom;html=1;verticalAlign=top;align=center;shape=mxgraph.floorplan.office_chair;" vertex="1" parent="CB1rWN8OY4WiAcrrbTE5-10">
          <mxGeometry x="170" y="200" width="20" height="20" as="geometry" />
        </mxCell>
        <mxCell id="CB1rWN8OY4WiAcrrbTE5-39" value="" style="verticalLabelPosition=bottom;html=1;verticalAlign=top;align=center;shape=mxgraph.floorplan.office_chair;" vertex="1" parent="CB1rWN8OY4WiAcrrbTE5-10">
          <mxGeometry x="190" y="200" width="20" height="20" as="geometry" />
        </mxCell>
        <mxCell id="CB1rWN8OY4WiAcrrbTE5-40" value="" style="verticalLabelPosition=bottom;html=1;verticalAlign=top;align=center;shape=mxgraph.floorplan.office_chair;fillColor=#d5e8d4;strokeColor=#82b366;" vertex="1" parent="CB1rWN8OY4WiAcrrbTE5-10">
          <mxGeometry x="35" y="230" width="20" height="20" as="geometry" />
        </mxCell>
        <mxCell id="CB1rWN8OY4WiAcrrbTE5-41" value="" style="verticalLabelPosition=bottom;html=1;verticalAlign=top;align=center;shape=mxgraph.floorplan.office_chair;fillColor=#d5e8d4;strokeColor=#82b366;" vertex="1" parent="CB1rWN8OY4WiAcrrbTE5-10">
          <mxGeometry x="55" y="230" width="20" height="20" as="geometry" />
        </mxCell>
        <mxCell id="CB1rWN8OY4WiAcrrbTE5-42" value="" style="verticalLabelPosition=bottom;html=1;verticalAlign=top;align=center;shape=mxgraph.floorplan.office_chair;fillColor=#d5e8d4;strokeColor=#82b366;" vertex="1" parent="CB1rWN8OY4WiAcrrbTE5-10">
          <mxGeometry x="75" y="230" width="20" height="20" as="geometry" />
        </mxCell>
        <mxCell id="CB1rWN8OY4WiAcrrbTE5-43" value="" style="verticalLabelPosition=bottom;html=1;verticalAlign=top;align=center;shape=mxgraph.floorplan.office_chair;" vertex="1" parent="CB1rWN8OY4WiAcrrbTE5-10">
          <mxGeometry x="95" y="230" width="20" height="20" as="geometry" />
        </mxCell>
        <mxCell id="CB1rWN8OY4WiAcrrbTE5-44" value="" style="verticalLabelPosition=bottom;html=1;verticalAlign=top;align=center;shape=mxgraph.floorplan.office_chair;" vertex="1" parent="CB1rWN8OY4WiAcrrbTE5-10">
          <mxGeometry x="130" y="230" width="20" height="20" as="geometry" />
        </mxCell>
        <mxCell id="CB1rWN8OY4WiAcrrbTE5-45" value="" style="verticalLabelPosition=bottom;html=1;verticalAlign=top;align=center;shape=mxgraph.floorplan.office_chair;" vertex="1" parent="CB1rWN8OY4WiAcrrbTE5-10">
          <mxGeometry x="150" y="230" width="20" height="20" as="geometry" />
        </mxCell>
        <mxCell id="CB1rWN8OY4WiAcrrbTE5-46" value="" style="verticalLabelPosition=bottom;html=1;verticalAlign=top;align=center;shape=mxgraph.floorplan.office_chair;" vertex="1" parent="CB1rWN8OY4WiAcrrbTE5-10">
          <mxGeometry x="170" y="230" width="20" height="20" as="geometry" />
        </mxCell>
        <mxCell id="CB1rWN8OY4WiAcrrbTE5-47" value="" style="verticalLabelPosition=bottom;html=1;verticalAlign=top;align=center;shape=mxgraph.floorplan.office_chair;" vertex="1" parent="CB1rWN8OY4WiAcrrbTE5-10">
          <mxGeometry x="190" y="230" width="20" height="20" as="geometry" />
        </mxCell>
        <mxCell id="CB1rWN8OY4WiAcrrbTE5-48" value="" style="verticalLabelPosition=bottom;html=1;verticalAlign=top;align=center;shape=mxgraph.floorplan.office_chair;fillColor=#d5e8d4;strokeColor=#82b366;" vertex="1" parent="CB1rWN8OY4WiAcrrbTE5-10">
          <mxGeometry x="35" y="260" width="20" height="20" as="geometry" />
        </mxCell>
        <mxCell id="CB1rWN8OY4WiAcrrbTE5-49" value="" style="verticalLabelPosition=bottom;html=1;verticalAlign=top;align=center;shape=mxgraph.floorplan.office_chair;fillColor=#d5e8d4;strokeColor=#82b366;" vertex="1" parent="CB1rWN8OY4WiAcrrbTE5-10">
          <mxGeometry x="55" y="260" width="20" height="20" as="geometry" />
        </mxCell>
        <mxCell id="CB1rWN8OY4WiAcrrbTE5-50" value="" style="verticalLabelPosition=bottom;html=1;verticalAlign=top;align=center;shape=mxgraph.floorplan.office_chair;fillColor=#d5e8d4;strokeColor=#82b366;" vertex="1" parent="CB1rWN8OY4WiAcrrbTE5-10">
          <mxGeometry x="75" y="260" width="20" height="20" as="geometry" />
        </mxCell>
        <mxCell id="CB1rWN8OY4WiAcrrbTE5-51" value="" style="verticalLabelPosition=bottom;html=1;verticalAlign=top;align=center;shape=mxgraph.floorplan.office_chair;" vertex="1" parent="CB1rWN8OY4WiAcrrbTE5-10">
          <mxGeometry x="95" y="260" width="20" height="20" as="geometry" />
        </mxCell>
        <mxCell id="CB1rWN8OY4WiAcrrbTE5-52" value="" style="verticalLabelPosition=bottom;html=1;verticalAlign=top;align=center;shape=mxgraph.floorplan.office_chair;" vertex="1" parent="CB1rWN8OY4WiAcrrbTE5-10">
          <mxGeometry x="130" y="260" width="20" height="20" as="geometry" />
        </mxCell>
        <mxCell id="CB1rWN8OY4WiAcrrbTE5-53" value="" style="verticalLabelPosition=bottom;html=1;verticalAlign=top;align=center;shape=mxgraph.floorplan.office_chair;" vertex="1" parent="CB1rWN8OY4WiAcrrbTE5-10">
          <mxGeometry x="150" y="260" width="20" height="20" as="geometry" />
        </mxCell>
        <mxCell id="CB1rWN8OY4WiAcrrbTE5-54" value="" style="verticalLabelPosition=bottom;html=1;verticalAlign=top;align=center;shape=mxgraph.floorplan.office_chair;" vertex="1" parent="CB1rWN8OY4WiAcrrbTE5-10">
          <mxGeometry x="170" y="260" width="20" height="20" as="geometry" />
        </mxCell>
        <mxCell id="CB1rWN8OY4WiAcrrbTE5-55" value="" style="verticalLabelPosition=bottom;html=1;verticalAlign=top;align=center;shape=mxgraph.floorplan.office_chair;" vertex="1" parent="CB1rWN8OY4WiAcrrbTE5-10">
          <mxGeometry x="190" y="260" width="20" height="20" as="geometry" />
        </mxCell>
        <mxCell id="CB1rWN8OY4WiAcrrbTE5-56" value="The GUI seen on starting the application." style="text;html=1;strokeColor=none;fillColor=none;align=center;verticalAlign=middle;whiteSpace=wrap;rounded=0;" vertex="1" parent="1">
          <mxGeometry x="300" y="370" width="240" height="30" as="geometry" />
        </mxCell>
      </root>
    </mxGraphModel>
  </diagram>
</mxfile>
